<svg xmlns="http://www.w3.org/2000/svg" viewBox="0 0 2200 980" width="2200" height="980" fill="none">
<defs>
<linearGradient id="home-blue" x1="0" y1="1" x2="1" y2="0"><stop offset="0" stop-color="#1E5BC6"/><stop offset="1" stop-color="#3E82DD"/></linearGradient>
<linearGradient id="home-gold" x1="0" y1="1" x2="1" y2="0"><stop offset="0" stop-color="#F0B429"/><stop offset="1" stop-color="#F7C64E"/></linearGradient>
<linearGradient id="home-orange" x1="0" y1="1" x2="1" y2="0"><stop offset="0" stop-color="#F26920"/><stop offset="1" stop-color="#F98338"/></linearGradient>
<linearGradient id="home-red" x1="0" y1="1" x2="1" y2="0"><stop offset="0" stop-color="#D0281E"/><stop offset="1" stop-color="#E4402F"/></linearGradient>
<linearGradient id="home-deep" x1="0" y1="1" x2="1" y2="0"><stop offset="0" stop-color="#8E1A18"/><stop offset="1" stop-color="#A82520"/></linearGradient>
</defs>
<path d="M -320.0,1584.05 L 1250,540.0 Q 1320,470.0 1362.0,470.0 L 1578.0,470.0 Q 1620,470.0 1655.0,428.0 L 2560,-340" stroke="#FBF9F4" stroke-width="96" stroke-linecap="round" stroke-linejoin="round"/>
<path d="M -303.2,1637.138 L 1334,548.4 Q 1404,478.4 1446.0,478.4 L 1662.0,478.4 Q 1704,478.4 1739.0,436.4 L 2644,-340" stroke="#FBF9F4" stroke-width="96" stroke-linecap="round" stroke-linejoin="round"/>
<path d="M -286.4,1690.226 L 1418,556.8 Q 1488,486.8 1530.0,486.8 L 1746.0,486.8 Q 1788,486.8 1823.0,444.8 L 2728,-340" stroke="#FBF9F4" stroke-width="96" stroke-linecap="round" stroke-linejoin="round"/>
<path d="M -269.6,1743.314 L 1502,565.2 Q 1572,495.2 1614.0,495.2 L 1830.0,495.2 Q 1872,495.2 1907.0,453.2 L 2812,-340" stroke="#FBF9F4" stroke-width="96" stroke-linecap="round" stroke-linejoin="round"/>
<path d="M -252.8,1796.402 L 1586,573.6 Q 1656,503.6 1698.0,503.6 L 1914.0,503.6 Q 1956,503.6 1991.0,461.6 L 2896,-340" stroke="#FBF9F4" stroke-width="96" stroke-linecap="round" stroke-linejoin="round"/>
<path d="M -320.0,1584.05 L 1250,540.0 Q 1320,470.0 1362.0,470.0 L 1578.0,470.0 Q 1620,470.0 1655.0,428.0 L 2560,-340" stroke="url(#home-blue)" stroke-width="72" stroke-linecap="round" stroke-linejoin="round"/>
<path d="M -303.2,1637.138 L 1334,548.4 Q 1404,478.4 1446.0,478.4 L 1662.0,478.4 Q 1704,478.4 1739.0,436.4 L 2644,-340" stroke="url(#home-gold)" stroke-width="72" stroke-linecap="round" stroke-linejoin="round"/>
<path d="M -286.4,1690.226 L 1418,556.8 Q 1488,486.8 1530.0,486.8 L 1746.0,486.8 Q 1788,486.8 1823.0,444.8 L 2728,-340" stroke="url(#home-orange)" stroke-width="72" stroke-linecap="round" stroke-linejoin="round"/>
<path d="M -269.6,1743.314 L 1502,565.2 Q 1572,495.2 1614.0,495.2 L 1830.0,495.2 Q 1872,495.2 1907.0,453.2 L 2812,-340" stroke="url(#home-red)" stroke-width="72" stroke-linecap="round" stroke-linejoin="round"/>
<path d="M -252.8,1796.402 L 1586,573.6 Q 1656,503.6 1698.0,503.6 L 1914.0,503.6 Q 1956,503.6 1991.0,461.6 L 2896,-340" stroke="url(#home-deep)" stroke-width="72" stroke-linecap="round" stroke-linejoin="round"/>
</svg>